# xmcd
#
# Track frame offsets:
#	150
#	14634
#	29280
#	43398
#	54369
#	68975
#	82026
#	98225
#	111775
#	131461
#	143420
#	157462
#	172809
#
# Disc length: 2497 seconds
#
# Revision: 1
# Processed by: cddbd v1.4PL0 Copyright (c) Steve Scherf et al.
# Submitted via: audiograbber 1.81.03
#
DISCID=b209bf0d
DTITLE=Paul Brasch - Find My Way
DYEAR=1999
DGENRE=Blues
TTITLE0=Keep My Place At The Table
TTITLE1=Heel And Toe
TTITLE2=Empire State Blues
TTITLE3=Six Days On The Road
TTITLE4=Sittin' In My Kitchen
TTITLE5=Find My Way
TTITLE6=Don't Worry, Don't Fret
TTITLE7=Lay Down Blues
TTITLE8=Sweet Tooth
TTITLE9=I Heard That Lonesome Whistle Blow
TTITLE10=Goin' To Texas
TTITLE11=Hold Carrier Blues
TTITLE12=By And By
EXTD=
EXTT0=
EXTT1=
EXTT2=
EXTT3=
EXTT4=
EXTT5=
EXTT6=
EXTT7=
EXTT8=
EXTT9=
EXTT10=
EXTT11=
EXTT12=
PLAYORDER=
